<svg xmlns="http://www.w3.org/2000/svg" viewBox="0 0 113.03 128.23"><defs><style>.cls-1,.cls-2{fill:#fff;}.cls-2{font-size:104px;font-family:CooperBlackStd, Cooper Std;}</style></defs><g id="レイヤー_2" data-name="レイヤー 2"><g id="レイヤー_1-2" data-name="レイヤー 1"><path class="cls-1" d="M56.51,0A55.51,55.51,0,0,0,0,56.51,55.5,55.5,0,0,0,56.51,113,55.49,55.49,0,0,0,113,56.51,55.5,55.5,0,0,0,56.51,0ZM90,89.34A44.9,44.9,0,0,1,57.71,103l-1,0H56.3l-1,0A45.5,45.5,0,0,1,10,56.73V56.3A45.5,45.5,0,0,1,55.31,10h2.4A45.48,45.48,0,0,1,103,56.3v.43A44.87,44.87,0,0,1,90,89.34Z"/><text class="cls-2" transform="translate(8.85 102.23) scale(0.82 1)">W</text></g></g></svg>