<svg xmlns="http://www.w3.org/2000/svg" viewBox="0 0 190 99.68"><defs><style>.cls-1,.cls-2{fill:none;stroke:#fff;stroke-miterlimit:10;stroke-width:4px;}.cls-1{stroke-linecap:round;}.cls-3{fill:#fff;}</style></defs><g id="レイヤー_2" data-name="レイヤー 2"><g id="トップアイコン"><g id="トップアイコン-2" data-name="トップアイコン"><path class="cls-1" d="M2,97.65c59-.21,53-59.21,53-70.21s9.24-23.12,28-25a114.83,114.83,0,0,1,20,0c23.57,2,36,11,42,20,5.46,8.2,12.38,30.45-20.79,28.62C96.2,49.51,148.4,95.85,188,97.68"/><ellipse class="cls-2" cx="126.39" cy="28.63" rx="11.37" ry="7.6" transform="translate(59.72 139.75) rotate(-71.8)"/><ellipse class="cls-3" cx="123.56" cy="28.61" rx="7.69" ry="5.14" transform="translate(57.79 137.06) rotate(-71.8)"/><path class="cls-2" d="M57.66,14.57c-7.38-2.27-23.33,2.09-3.83,12.55"/><path class="cls-2" d="M54.67,34.51c-7.65-1-22.68,5.84-1.74,13"/><path class="cls-2" d="M52.73,57c-7.28-2.54-23.39,1.21-4.3,12.4"/></g></g></g></svg>