<svg xmlns="http://www.w3.org/2000/svg" viewBox="0 0 170 170"><defs><style>.cls-1{fill:#f7f7f7;}.cls-2{fill:#94c3ca;}.cls-3,.cls-4{fill:none;stroke:#000;stroke-miterlimit:10;stroke-width:4px;}.cls-3{stroke-linecap:round;}</style></defs><g id="レイヤー_2" data-name="レイヤー 2"><g id="ファビコン"><circle class="cls-1" cx="85" cy="85" r="82"/><path class="cls-2" d="M85,6A79,79,0,1,1,6,85,79.09,79.09,0,0,1,85,6m0-6a85,85,0,1,0,85,85A85,85,0,0,0,85,0Z"/><g id="恐竜単体"><path class="cls-3" d="M22.26,126.77C43.41,106.08,40,70.38,40,61.58,40,49,50.6,35.16,72,33a131.46,131.46,0,0,1,22.85,0c26.93,2.29,41.13,12.57,48,22.85,6.24,9.37,14.15,34.78-23.75,32.69-21.87-1.2-1,23.13,28.92,39.33"/><ellipse class="cls-4" cx="121.61" cy="62.93" rx="12.99" ry="8.68" transform="translate(23.85 158.8) rotate(-71.8)"/><ellipse cx="119.24" cy="62.24" rx="9.7" ry="6.48" transform="translate(22.87 156.07) rotate(-71.8)"/><path class="cls-4" d="M43.08,46.87c-8.43-2.59-26.65,2.39-4.37,14.33"/><path class="cls-4" d="M39.66,69.65c-8.73-1.2-25.91,6.67-2,14.85"/><path class="cls-4" d="M37.45,95.35c-8.32-2.91-26.72,1.38-4.91,14.16"/></g></g></g></svg>