<svg xmlns="http://www.w3.org/2000/svg" viewBox="0 0 113.03 113.03"><defs><style>.cls-1{fill:#0273aa;}</style></defs><g id="レイヤー_2" data-name="レイヤー 2"><g id="レイヤー_1-2" data-name="レイヤー 1"><path class="cls-1" d="M56.51,0A55.51,55.51,0,0,0,0,56.51,55.5,55.5,0,0,0,56.51,113,55.49,55.49,0,0,0,113,56.51,55.5,55.5,0,0,0,56.51,0ZM90,89.34A44.9,44.9,0,0,1,57.71,103l-1,0H56.3l-1,0A45.5,45.5,0,0,1,10,56.73V56.3A45.5,45.5,0,0,1,55.31,10h2.4A45.48,45.48,0,0,1,103,56.3v.43A44.87,44.87,0,0,1,90,89.34Z"/><path class="cls-1" d="M58.52,73.43c-.43-1.15-1.11-4.37-2.48-4.37-1.63,0-2.22,2.7-4.45,9.36l-5.21,15.7c-1.8,5.41-2.65,9.26-8.21,9.26-4.79,0-6.07-3.64-7.61-8.43l-15.9-49.4c-2.39-7.49-5.81-3.64-5.81-10,0-7.18,11.54-7.39,15.47-7.39,12.48,0,14.62,2.4,14.62,6.66,0,3.12-2,3.54-2,6.76,0,3,2.65,10.61,3,11.86.42,1.66,2.3,8.94,4.27,8.94,2.22,0,4-7.49,4.45-9A22,22,0,0,0,49.8,49.3c0-.94-1.8-7.39-4.36-9.16a5.68,5.68,0,0,1-3.17-5.09c0-.63-1.19-6.87,16.68-6.87,16.58,0,16.24,4.68,16.24,6.45,0,3.43-3.85,4.37-3.85,7,0,2.81,2.91,9.26,3.76,11.54.6,1.67,2.48,8.12,4.54,8.12,2.9,0,6.58-17.68,6.58-19.14,0-4.47-5.56-2.18-5.56-7.9,0-6.35,8.72-6,12.23-6s9.91.52,9.91,6.35c0,5.09-3.59,3.74-5.89,11L82.2,92.35c-1.79,5.62-3.76,11-8.63,11-4.28,0-5.65-2.81-7.19-7.18Z"/></g></g></svg>