<svg xmlns="http://www.w3.org/2000/svg" viewBox="0 0 191 148.44" style=""><defs><style>.cls-1,.cls-4,.cls-5{fill:none;}.cls-1,.cls-2,.cls-4{stroke:#082d33;}.cls-1,.cls-5{stroke-linecap:round;}.cls-1,.cls-2,.cls-4,.cls-5{stroke-miterlimit:10;stroke-width:4px;}.cls-2{fill:#f1ebd9;}.cls-3{fill:#082d33;}.cls-5{stroke:#f1ebd9;}</style></defs><g id="レイヤー_2" data-name="レイヤー 2"><g id="タイトルロゴ"><g id="恐竜ロゴ用2"><path class="cls-1 aNeyWRZM_0" d="M2,97.65c59-.21,53-59.21,53-70.21s9.24-23.12,28-25a114.83,114.83,0,0,1,20,0c23.57,2,36,11,42,20,5.46,8.2,12.38,30.45-20.79,28.62C96.2,49.51,148.4,95.85,188,97.68"></path><path class="cls-2 aNeyWRZM_1" transform="translate(59.72 139.75) rotate(-71.8)" d="M115.02,28.63A11.37,7.6 0,1,1 137.76,28.63A11.37,7.6 0,1,1 115.02,28.63"></path><path class="cls-3 aNeyWRZM_2" transform="matrix(0.31, -0.95, 0.95, 0.31, 58.87, 137.37)" d="M115.82000000000001,28.02A8.49,5.67 0,1,1 132.8,28.02A8.49,5.67 0,1,1 115.82000000000001,28.02"></path><path class="cls-4 aNeyWRZM_3" d="M57.66,14.57c-7.38-2.27-23.33,2.09-3.83,12.55"></path><path class="cls-4 aNeyWRZM_4" d="M54.67,34.51c-7.65-1-22.68,5.84-1.74,13"></path><path class="cls-4 aNeyWRZM_5" d="M52.73,57c-7.28-2.54-23.39,1.21-4.3,12.4"></path></g><path class="cls-5 aNeyWRZM_6" d="M2.87,112.54a10,10,0,0,0,9.13,5.9H77a3,3,0,0,1,3,3v8a3,3,0,0,1-3,3H59a3,3,0,0,0-3,3v8a3,3,0,0,0,3,3h72a3,3,0,0,0,3-3v-8a3,3,0,0,0-3-3H113a3,3,0,0,1-3-3v-8a3,3,0,0,1,3-3h65a10,10,0,0,0,9.08-5.79"></path><path class="cls-5 aNeyWRZM_7" d="M189,100.44v-86a10,10,0,0,0-10-10H148"></path><path class="cls-5 aNeyWRZM_8" d="M43,4.44H12a10,10,0,0,0-10,10v86"></path></g></g><style data-made-with="vivus-instant">.aNeyWRZM_0{stroke-dasharray:357 359;stroke-dashoffset:358;animation:aNeyWRZM_draw 929ms linear 0ms forwards;}.aNeyWRZM_1{stroke-dasharray:61 63;stroke-dashoffset:62;animation:aNeyWRZM_draw 160ms linear 929ms forwards;}.aNeyWRZM_2{stroke-dasharray:45 47;stroke-dashoffset:46;animation:aNeyWRZM_draw 119ms linear 1089ms forwards;}.aNeyWRZM_3{stroke-dasharray:29 31;stroke-dashoffset:30;animation:aNeyWRZM_draw 77ms linear 1209ms forwards;}.aNeyWRZM_4{stroke-dasharray:29 31;stroke-dashoffset:30;animation:aNeyWRZM_draw 77ms linear 1287ms forwards;}.aNeyWRZM_5{stroke-dasharray:29 31;stroke-dashoffset:30;animation:aNeyWRZM_draw 77ms linear 1365ms forwards;}.aNeyWRZM_6{stroke-dasharray:331 333;stroke-dashoffset:332;animation:aNeyWRZM_draw 861ms linear 1442ms forwards;}.aNeyWRZM_7{stroke-dasharray:133 135;stroke-dashoffset:134;animation:aNeyWRZM_draw 347ms linear 2304ms forwards;}.aNeyWRZM_8{stroke-dasharray:133 135;stroke-dashoffset:134;animation:aNeyWRZM_draw 347ms linear 2652ms forwards;}@keyframes aNeyWRZM_draw{100%{stroke-dashoffset:0;}}@keyframes aNeyWRZM_fade{0%{stroke-opacity:1;}94.44444444444444%{stroke-opacity:1;}100%{stroke-opacity:0;}}</style></svg>