<svg xmlns="http://www.w3.org/2000/svg" viewBox="0 0 170 170"><defs><style>.cls-1{fill:#f8f8f8;}.cls-2{fill:#95c4cb;}.cls-3,.cls-4{fill:none;stroke:#4d4b3a;stroke-miterlimit:10;stroke-width:4px;}.cls-3{stroke-linecap:round;}.cls-5{fill:#4d4b3a;}</style></defs><g id="レイヤー_2" data-name="レイヤー 2"><g id="webデザイン"><g id="アップ用"><circle class="cls-1" cx="85" cy="85" r="82"/><path class="cls-2" d="M85,6A79,79,0,1,1,6,85,79.09,79.09,0,0,1,85,6m0-6a85,85,0,1,0,85,85A85,85,0,0,0,85,0Z"/><g id="webデザイン-2" data-name="webデザイン"><path class="cls-3" d="M109.13,99.24c9.92,7,23.54,13.41,35.49,14"/></g><g id="恐竜単体"><ellipse class="cls-4" cx="102.13" cy="65.57" rx="7.84" ry="5.24" transform="translate(7.94 142.12) rotate(-71.8)"/><ellipse class="cls-5" cx="100.18" cy="65.56" rx="5.3" ry="3.55" transform="translate(6.61 140.26) rotate(-71.8)"/><path class="cls-4" d="M54.73,55.88c-5.09-1.56-16.09,1.44-2.64,8.65"/><path class="cls-4" d="M52.67,69.63c-5.27-.72-15.64,4-1.2,9"/></g><path class="cls-4" d="M115,61.31c3.76,5.65,8.54,21-14.34,19.73-3.53-.19-5.21.72-5.43,2.34h49.42V51.66H103.11A27.68,27.68,0,0,1,115,61.31Z"/><path class="cls-4" d="M52.9,64.76a16.2,16.2,0,0,1,7.35-13.1H26V83.38H52.06C53.48,75.11,52.9,67.6,52.9,64.76Z"/><rect class="cls-4" x="95.66" y="99.24" width="48.97" height="22.76"/><line class="cls-4" x1="53.24" y1="51.66" x2="106.34" y2="51.66"/><line class="cls-4" x1="98.76" y1="83.38" x2="48.41" y2="83.38"/><line class="cls-3" x1="26" y1="99.93" x2="73.59" y2="99.93"/><line class="cls-3" x1="26" y1="110.97" x2="73.59" y2="110.97"/><line class="cls-3" x1="26" y1="121.31" x2="73.59" y2="121.31"/><line class="cls-3" x1="106.69" y1="42" x2="110.83" y2="42"/><line class="cls-3" x1="117.72" y1="42" x2="121.86" y2="42"/><line class="cls-3" x1="129.45" y1="42" x2="133.59" y2="42"/><line class="cls-3" x1="140.48" y1="42" x2="144.62" y2="42"/></g></g></g></svg>