<svg xmlns="http://www.w3.org/2000/svg" viewBox="0 0 170 170"><defs><style>.cls-1{fill:#f8f8f8;}.cls-2{fill:#95c4cb;}.cls-3,.cls-4{fill:none;stroke:#4d4b3a;stroke-miterlimit:10;stroke-width:4px;}.cls-3{stroke-linecap:round;}.cls-5{fill:#4d4b3a;}</style></defs><g id="レイヤー_2" data-name="レイヤー 2"><g id="イラスト"><g id="アップ用"><circle class="cls-1" cx="85" cy="85" r="82"/><path class="cls-2" d="M85,6A79,79,0,1,1,6,85,79.09,79.09,0,0,1,85,6m0-6a85,85,0,1,0,85,85A85,85,0,0,0,85,0Z"/><g id="恐竜単体"><path class="cls-3" d="M15.18,112.63c19.73-9.74,17.14-36.25,17.14-42.07,0-7.16,6-15.05,18.22-16.27a74.74,74.74,0,0,1,13,0c15.34,1.3,23.43,7.16,27.33,13,3.56,5.34,8.06,19.81-13.52,18.62-18.23-1,15.73,29.15,41.51,30.34"/><ellipse class="cls-4" cx="78.77" cy="71.33" rx="7.4" ry="4.94" transform="translate(-13.59 123.89) rotate(-71.8)"/><ellipse class="cls-5" cx="79.54" cy="73.92" rx="5" ry="3.35" transform="translate(-15.53 126.39) rotate(-71.8)"/><path class="cls-4" d="M34.05,62.18c-4.8-1.48-15.18,1.36-2.49,8.16"/><path class="cls-4" d="M32.11,75.15c-5-.68-14.76,3.8-1.14,8.46"/><path class="cls-4" d="M30.84,89.79c-4.73-1.66-15.21.79-2.79,8.06"/></g><path class="cls-5" d="M109,113.28c8.87,1.59,5.63-7.37,14-3.08,0,0,6.43,3.15-1,5.41A14.91,14.91,0,0,1,109,113.28Z"/><path class="cls-4" d="M107.77,113.5c15.63-1.25,5.81-19.9,22-14.72,0,0,12.33,3.64,1,12.87S107.77,113.5,107.77,113.5Z"/><path class="cls-4" d="M129,97.89l20.43-26.75c2-2.58,4.86-3.68,6.46-2.46s1.31,4.31-.66,6.89l-20.42,26.75"/></g></g></g></svg>