<svg xmlns="http://www.w3.org/2000/svg" viewBox="0 0 170 170"><defs><style>.cls-1{fill:#f8f8f8;}.cls-2{fill:#95c4cb;}.cls-3{font-size:3.93px;}.cls-3,.cls-4,.cls-5,.cls-6,.cls-7{fill:#4d4b3a;font-family:Quicksand-Bold, Quicksand;font-weight:700;}.cls-4{font-size:3.15px;}.cls-5{font-size:4.72px;}.cls-6{font-size:4.72px;}.cls-7{font-size:7.08px;}</style></defs><g id="レイヤー_2" data-name="レイヤー 2"><g id="コーディング"><g id="アップ用"><circle class="cls-1" cx="85" cy="85" r="82"/><path class="cls-2" d="M85,6A79,79,0,1,1,6,85,79.09,79.09,0,0,1,85,6m0-6a85,85,0,1,0,85,85A85,85,0,0,0,85,0Z"/><text class="cls-3" transform="matrix(-0.97, -0.25, 0.25, -0.97, 108.3, 75.67)">&lt;</text><text class="cls-3" transform="matrix(-0.81, -0.59, 0.59, -0.81, 106.52, 75.25)">t</text><text class="cls-3" transform="translate(105.35 74.39) rotate(-130.21)">i</text><text class="cls-3" transform="translate(104.78 73.8) rotate(-118.25)">t</text><text class="cls-3" transform="translate(104.1 72.47) rotate(-108.27)">l</text><text class="cls-3" transform="translate(103.74 71.58) rotate(-97.98)">e</text><text class="cls-3" transform="translate(103.45 69.42) rotate(-86.99)">&gt;</text><text class="cls-3" transform="translate(103.56 67.44) rotate(-78.61)">r</text><text class="cls-3" transform="matrix(0.33, -0.94, 0.94, 0.33, 103.86, 65.85)">e</text><text class="cls-3" transform="translate(104.57 63.79) rotate(-60.73)">n</text><text class="cls-3" transform="matrix(0.62, -0.78, 0.78, 0.62, 105.68, 61.84)">t</text><text class="cls-3" transform="translate(106.57 60.63) rotate(-40.39)">o</text><text class="cls-3" transform="translate(108.27 59.13) rotate(-23.02)">n</text><text class="cls-3" transform="matrix(0.99, -0.13, 0.13, 0.99, 110.3, 58.34)">&apos;</text><text class="cls-3" transform="translate(110.98 58.15) rotate(8.28)">s</text><text class="cls-3" transform="matrix(0.89, 0.45, -0.45, 0.89, 112.66, 58.43)"> </text><text class="cls-3" transform="translate(113.55 58.71) rotate(46.74)">p</text><text class="cls-3" transform="translate(115.1 60.37) rotate(68.25)">o</text><text class="cls-3" transform="translate(115.9 62.48) rotate(81.46)">r</text><text class="cls-3" transform="translate(116.14 64.08) rotate(90.08)">t</text><text class="cls-3" transform="matrix(-0.13, 0.99, -0.99, -0.13, 116.14, 65.62)">f</text><text class="cls-3" transform="translate(115.97 67.18) rotate(106.06)">o</text><text class="cls-3" transform="translate(115.29 69.41) rotate(113.23)">l</text><text class="cls-3" transform="translate(114.88 70.35) rotate(117.48)">i</text><text class="cls-3" transform="translate(114.54 71.13) rotate(124.97)">o</text><text class="cls-3" transform="translate(113.23 73.01) rotate(136.56)">&lt;</text><text class="cls-4" transform="translate(109.68 66.58)">&lt;li<tspan x="-2.81" y="3.14">nkrel</tspan><tspan x="-3.79" y="6.29">=&quot;sty</tspan><tspan x="-2.43" y="9.44">les</tspan></text><text class="cls-5" transform="translate(50.94 51.53) rotate(-178.57)">h</text><text class="cls-5" transform="translate(47.68 51.5) rotate(168.2)">e</text><text class="cls-5" transform="translate(41.95 54.35) rotate(71.65)">a</text><text class="cls-5" transform="translate(43.92 58.03) rotate(38.34)">d</text><text class="cls-6" transform="matrix(-0.97, 0.25, -0.25, -0.97, 47.07, 65.72)">h</text><text class="cls-6" transform="translate(43.92 66.57) rotate(152.49)">e</text><text class="cls-6" transform="translate(39.17 70.87) rotate(55.93)">a</text><text class="cls-6" transform="translate(42.07 73.87) rotate(22.63)">d</text><text class="cls-6" transform="translate(47.06 78.3) rotate(165.71)">h</text><text class="cls-6" transform="translate(43.92 79.15) rotate(152.48)">e</text><text class="cls-6" transform="matrix(0.56, 0.83, -0.83, 0.56, 39.17, 83.45)">a</text><text class="cls-6" transform="matrix(0.92, 0.38, -0.38, 0.92, 42.07, 86.45)">d</text><text class="cls-7" transform="matrix(0.99, -0.15, 0.15, 0.99, 18.46, 120.91)">g</text><text class="cls-7" transform="matrix(0.97, -0.24, 0.24, 0.97, 23.18, 120.18)">e</text><text class="cls-7" transform="matrix(0.94, -0.33, 0.33, 0.94, 27.43, 119.08)">&quot;</text><text class="cls-7" transform="matrix(0.91, -0.42, 0.42, 0.91, 30.57, 117.98)">&gt;</text><text class="cls-7" transform="translate(34.27 116.23) rotate(-31.82)">&lt;</text><text class="cls-7" transform="matrix(0.75, -0.67, 0.67, 0.75, 37.94, 114.05)">m</text><text class="cls-7" transform="translate(43.1 109.21) rotate(-51.99)">e</text><text class="cls-7" transform="matrix(0.53, -0.85, 0.85, 0.53, 45.8, 105.68)">t</text><text class="cls-7" transform="matrix(0.44, -0.9, 0.9, 0.44, 47.5, 102.96)">a</text><text class="cls-7" transform="translate(49.48 98.76) rotate(-68.64)"> </text><text class="cls-7" transform="translate(50.31 96.71) rotate(-72.6)">n</text><text class="cls-7" transform="translate(51.63 92.47) rotate(-77.37)">a</text><text class="cls-7" transform="translate(52.69 87.88) rotate(-82.47)">m</text><text class="cls-7" transform="matrix(0.06, -1, 1, 0.06, 53.51, 81.2)">e</text><text class="cls-7" transform="translate(53.77 76.96) rotate(-89.19)">=</text><text class="cls-7" transform="translate(53.82 72.53) rotate(-90.99)">&quot;</text><text class="cls-7" transform="matrix(-0.03, -1, 1, -0.03, 53.75, 69.49)">v</text><text class="cls-7" transform="translate(53.66 65.64) rotate(-85.62)">i</text><text class="cls-7" transform="matrix(0.24, -0.97, 0.97, 0.24, 53.66, 64.17)">e</text><text class="cls-7" transform="translate(54.47 60.4) rotate(-61.63)">w</text><text class="cls-7" transform="translate(56.95 55.88) rotate(-47.86)">p</text><text class="cls-7" transform="matrix(0.8, -0.6, 0.6, 0.8, 59.77, 52.76)">o</text><text class="cls-7" transform="translate(63.11 50.32) rotate(-28.07)">r</text><text class="cls-7" transform="translate(65.71 48.93) rotate(-21.78)">t</text><text class="cls-7" transform="translate(68.3 47.89) rotate(-16.03)">&quot;</text><text class="cls-7" transform="translate(71.12 47.09) rotate(-11.65)"> </text><text class="cls-7" transform="translate(72.99 46.68) rotate(-7.11)">c</text><text class="cls-7" transform="translate(76.5 46.24) rotate(-3.16)">o</text><text class="cls-7" transform="translate(80.8 46.01) rotate(-0.22)">n</text><text class="cls-7" transform="matrix(1, 0.03, -0.03, 1, 84.97, 46)">t</text><text class="cls-7" transform="matrix(1, 0.07, -0.07, 1, 87.81, 46.08)">e</text><text class="cls-7" transform="translate(91.85 46.36) rotate(6.66)">n</text><text class="cls-7" transform="matrix(0.99, 0.16, -0.16, 0.99, 95.98, 46.85)">t</text><text class="cls-7" transform="translate(98.76 47.29) rotate(12.58)">=</text><text class="cls-7" transform="matrix(0.96, 0.28, -0.28, 0.96, 102.99, 48.25)">&quot;</text><text class="cls-7" transform="translate(105.83 49.02) rotate(21)">w</text><text class="cls-7" transform="translate(110.78 50.99) rotate(25.51)">i</text><text class="cls-7" transform="translate(112.25 51.63) rotate(29.85)">d</text><text class="cls-7" transform="matrix(0.81, 0.58, -0.58, 0.81, 115.95, 53.79)">t</text><text class="cls-7" transform="matrix(0.75, 0.66, -0.66, 0.75, 118.22, 55.36)">h</text><text class="cls-7" transform="matrix(0.65, 0.76, -0.76, 0.65, 121.21, 57.99)">=</text><text class="cls-7" transform="translate(123.96 61.17) rotate(59.77)">d</text><text class="cls-7" transform="translate(126.07 64.8) rotate(69.58)">e</text><text class="cls-7" transform="matrix(0.17, 0.98, -0.98, 0.17, 127.46, 68.45)">v</text><text class="cls-7" transform="translate(128.05 72.19) rotate(89.37)">i</text><text class="cls-7" transform="matrix(-0.18, 0.98, -0.98, -0.18, 128.19, 73.63)">c</text><text class="cls-7" transform="translate(127.72 76.88) rotate(120.72)">e</text><text class="cls-7" transform="matrix(-0.76, 0.65, -0.65, -0.76, 125.76, 80.07)">-</text><text class="cls-7" transform="translate(124.01 81.85) rotate(156.8)">w</text><text class="cls-7" transform="matrix(-0.97, 0.22, -0.22, -0.97, 119.16, 83.75)">i</text><text class="cls-7" transform="translate(117.65 84.17) rotate(173.38)">d</text><text class="cls-7" transform="translate(113.38 84.62) rotate(178.85)">t</text><text class="cls-7" transform="matrix(-1, -0.04, 0.04, -1, 110.55, 84.68)">h</text><text class="cls-7" transform="matrix(-0.97, 0.24, -0.24, -0.97, 105.51, 84.57)"> </text><text class="cls-7" transform="translate(102.31 89.79) rotate(63.32)">i</text><text class="cls-7" transform="translate(103.34 91.86) rotate(52.17)">n</text><text class="cls-7" transform="matrix(0.68, 0.73, -0.73, 0.68, 106.14, 95.35)">i</text><text class="cls-7" transform="translate(107.4 96.71) rotate(44.04)">t</text><text class="cls-7" transform="translate(109.56 98.77) rotate(41.8)">i</text><text class="cls-7" transform="translate(110.91 100.01) rotate(39.28)">a</text><text class="cls-7" transform="translate(114.42 102.85) rotate(37.07)">l</text><text class="cls-7" transform="translate(116.01 104.05) rotate(35.57)">-</text><text class="cls-7" transform="translate(118.36 105.74) rotate(33.73)">s</text><text class="cls-7" transform="translate(121.28 107.69) rotate(31.72)">c</text><text class="cls-7" transform="translate(124.5 109.68) rotate(29.46)">a</text><text class="cls-7" transform="matrix(0.89, 0.46, -0.46, 0.89, 128.43, 111.88)">l</text><text class="cls-7" transform="translate(130.18 112.82) rotate(25.94)">e</text><text class="cls-7" transform="translate(134.01 114.68) rotate(23.32)">=</text><text class="cls-7" transform="translate(138.15 116.44) rotate(21.01)">1</text><text class="cls-7" transform="matrix(0.94, 0.33, -0.33, 0.94, 140.63, 117.39)">.</text><text class="cls-7" transform="matrix(0.96, 0.29, -0.29, 0.96, 142.42, 118.05)">0</text><text class="cls-7" transform="translate(146.73 119.35) rotate(13.85)">&quot;</text><text class="cls-7" transform="translate(149.86 120.13) rotate(10.45)">&gt;</text><text class="cls-7" transform="translate(153.68 120.8) rotate(7.18)"> </text></g></g></g></svg>